<svg width="512" height="512" viewBox="0 0 512 512" fill="none" xmlns="http://www.w3.org/2000/svg">
<path d="M23.9688 70.1932C61.4093 62.7051 157.534 66.2574 256.376 106.693L256.376 473.609C157.534 433.174 57.1933 426.811 19.7529 434.299L23.9688 70.1932Z" fill="#FCE0D0" stroke="#967A6A" stroke-width="11.2426" stroke-linejoin="round"/>
<path d="M488.784 70.1932C451.344 62.7051 355.219 66.2574 256.376 106.693L256.376 473.609C355.219 433.174 455.56 426.811 493 434.299L488.784 70.1932Z" fill="#FCE0D0" stroke="#967A6A" stroke-width="11.2426" stroke-linejoin="round"/>
<path d="M255.145 252.271C277.322 252.271 297.373 258.994 311.863 269.83C326.353 280.666 335.249 295.582 335.249 311.997C335.249 328.412 326.353 343.328 311.863 354.164C297.373 365 277.322 371.723 255.145 371.723C232.968 371.723 212.918 365 198.427 354.164C183.937 343.328 175.042 328.412 175.042 311.997C175.042 295.582 183.937 280.666 198.427 269.83C212.918 258.994 232.968 252.271 255.145 252.271Z" fill="#F06414" stroke="#F06414" stroke-width="1.40532"/>
<path d="M314.871 313.402V46.3906C444.864 162.33 395.677 234.704 388.651 245.947" stroke="#F06414" stroke-width="42.1597" stroke-linejoin="bevel"/>
</svg>
